   Another Fine Release Brought to you from - IMAGiNE                  

                                             



********************************************************************************************************************                                

                           Rise Of The Apes 2011 TS READNFO XViD - IMAGiNE

********************************************************************************************************************









Ripper ...........: IMAGiNE                                        IMDB Rating.......:7.8/10                            

Video Codec.......: XVID                                         Release Date......:06/08/11

Audio Codec.......:MP3                                           Theatre Date......:05/08/11

Audio Bitrate.....:128                                              Runtime.......:1h 37mn

Subtitles.........:ENGLISH HARDCODED WHEN NEEDED                  Language..........:ENGLISH

Resolution...... 720 x 320                                      IMDb URL.......... http://www.imdb.com/title/tt1318514/





DETAILS:



Video

ID                               : 0

Format                           : MPEG-4 Visual

Format profile                   : Advanced Simple@L5

Format settings, BVOP            : 2

Format settings, QPel            : No

Format settings, GMC             : No warppoints

Format settings, Matrix          : Default (MPEG)

Muxing mode                      : Packed bitstream

Codec ID                         : XVID

Codec ID/Hint                    : XviD

Duration                         : 1h 37mn

Bit rate                         : 1 865 Kbps

Width                            : 720 pixels

Height                           : 320 pixels

Display aspect ratio             : 2.25:1

Frame rate                       : 25.000 fps

Color space                      : YUV

Chroma subsampling               : 4:2:0

Bit depth                        : 8 bits

Scan type                        : Progressive

Compression mode                 : Lossy

Bits/(Pixel*Frame)               : 0.324

Stream size                      : 1.28 GiB (93%)

Writing library                  : XviD 64



Audio

ID                               : 1

Format                           : MPEG Audio

Format version                   : Version 1

Format profile                   : Layer 3

Mode                             : Joint stereo

Mode extension                   : MS Stereo

Codec ID                         : 55

Codec ID/Hint                    : MP3

Duration                         : 1h 37mn

Bit rate mode                    : Constant

Bit rate                         : 128 Kbps

Channel(s)                       : 2 channels

Sampling rate                    : 44.1 KHz

Compression mode                 : Lossy

Stream size                      : 89.7 MiB (6%)

Alignment                        : Split accross interleaves

Interleave, duration             : 40 ms (1.00 video frame)





SOURCES:



VIDEO: .............. Vosstanie.obeziyan.2011.CAMRip.PROPER Thanks

AUDIO: .............. Thanks Matey 